# xmcd
#
# Track frame offsets: 
#        150
#        18179
#        30677
#        46766
#        63623
#        73433
#        95110
#        134566
#        169971
#        187961
#        202841
#        227315
#
# Disc length: 3407 seconds
#
# Revision: 0
# Processed by: cddbd v1.5.2PL0 Copyright (c) Steve Scherf et al.
# Submitted via: ExactAudioCopy v0.95b4
#
DISCID=a50d4d0c
DTITLE=Nashville Fats - Nothing But The Blues
DYEAR=2003
DGENRE=Christian Blues
TTITLE0=You Reap Just Waht You Sow
TTITLE1=Kingdom of Heaen
TTITLE2=One By One
TTITLE3=Slow Train to Hell
TTITLE4=Psalms 89:11
TTITLE5=Glory Bound
TTITLE6=Psychic Hotline.com
TTITLE7=B-I-B-L-E
TTITLE8=Beethoven Bach BBQ Blues Sam'ich
TTITLE9=Immortatlity (1 Cor 15:54-55)
TTITLE10=Bonus Track
TTITLE11=Extras
EXTD=
EXTT0=
EXTT1=
EXTT2=
EXTT3=
EXTT4=
EXTT5=
EXTT6=
EXTT7=
EXTT8=
EXTT9=
EXTT10=
EXTT11=
PLAYORDER=
